<svg width="20" height="103" viewBox="0 0 20 103" fill="none" xmlns="http://www.w3.org/2000/svg">
<path d="M10.02 102.63C9.91002 102.63 9.83003 102.59 9.78003 102.49L0.690033 81.22C0.670033 81.2 0.660034 81.18 0.660034 81.15C0.660034 80.99 0.740024 80.91 0.900024 80.91C0.990024 80.91 1.06004 80.95 1.10004 81.05L10.02 101.81L18.9 81.05C18.95 80.96 19.01 80.91 19.1 80.91C19.26 80.91 19.34 80.99 19.34 81.15C19.34 81.17 19.33 81.19 19.31 81.22L10.22 102.49C10.18 102.59 10.11 102.63 10.02 102.63Z" fill="white" stroke="white" stroke-width="0.7528" stroke-miterlimit="10"/>
<path d="M10 -0.0100098V77.16" stroke="white" stroke-miterlimit="10"/>
</svg>
