<svg width="128" height="128" viewBox="0 0 128 128" fill="none" xmlns="http://www.w3.org/2000/svg">
<rect width="128" height="128" fill="#0A0B0C"/>
<path d="M74.844 118H21V100.725H75.0037C78.8783 100.725 82.2335 99.3062 84.9897 96.5082C87.7458 93.7102 89.1438 90.3445 89.1438 86.3705C89.1438 82.4371 87.7458 79.0714 84.9897 76.2329C82.2335 73.4349 78.9182 72.0156 75.0037 72.0156H21V54.9033H75.0037C78.8783 54.9033 82.2335 53.484 84.9897 50.6049C87.7458 47.7664 89.1438 44.4007 89.1438 40.5484C89.1438 36.615 87.7458 33.2493 84.9897 30.4107C82.2335 27.6127 78.9182 26.1935 75.0037 26.1935H21V9H74.844C83.4318 9 90.7815 12.0818 96.8529 18.2455C102.924 24.4092 106 31.8705 106 40.5889C106 49.6317 102.725 57.2552 96.1739 63.5C102.725 69.7448 106 77.3683 106 86.4111C106 95.1295 102.964 102.591 96.8529 108.754C90.7415 114.918 83.4318 118 74.844 118Z" fill="#FFD100"/>
</svg>
