<svg width="141" height="41" viewBox="0 0 141 41" fill="none" xmlns="http://www.w3.org/2000/svg">
<path d="M6.13991 32.74C6.17991 32.74 6.20991 32.77 6.20991 32.82V36.26H11.0899V32.82C11.0899 32.77 11.1199 32.74 11.1699 32.74C11.2199 32.74 11.2499 32.77 11.2499 32.82V39.85C11.2499 39.9 11.2199 39.93 11.1699 39.93C11.1199 39.93 11.0899 39.9 11.0899 39.85V36.41H6.20991V39.85C6.20991 39.9 6.18991 39.93 6.13991 39.93C6.08991 39.93 6.06991 39.9 6.06991 39.85V32.82C6.05991 32.76 6.08991 32.74 6.13991 32.74Z" fill="white" stroke="white" stroke-width="0.2493" stroke-miterlimit="10"/>
<path d="M23.8399 32.74C23.8799 32.74 23.8999 32.76 23.9199 32.78L26.9299 39.82C26.9399 39.83 26.9399 39.83 26.9399 39.84C26.9399 39.89 26.9099 39.92 26.8599 39.92C26.8299 39.92 26.8099 39.9 26.7899 39.87L23.8399 32.99L20.8999 39.87C20.8799 39.9 20.8599 39.92 20.8299 39.92C20.7799 39.92 20.7499 39.89 20.7499 39.84C20.7499 39.83 20.7499 39.82 20.7599 39.82L23.7699 32.78C23.7899 32.75 23.8099 32.74 23.8399 32.74Z" fill="white" stroke="white" stroke-width="0.2493" stroke-miterlimit="10"/>
<path d="M36.46 32.82C36.46 32.77 36.49 32.74 36.54 32.74C36.58 32.74 36.61 32.77 36.61 32.82V39.85C36.61 39.9 36.59 39.93 36.54 39.93C36.49 39.93 36.47 39.9 36.47 39.85V32.82H36.46Z" fill="white" stroke="white" stroke-width="0.2493" stroke-miterlimit="10"/>
<path d="M46.5999 32.74H49.1099C49.7699 32.74 50.3299 32.86 50.7799 33.11C51.3999 33.45 51.6999 33.98 51.6999 34.69C51.6999 35.41 51.3899 35.94 50.7799 36.27C50.4799 36.44 50.1099 36.55 49.6799 36.61L52.1899 39.8C52.1999 39.81 52.1999 39.83 52.1999 39.84C52.1999 39.89 52.1799 39.92 52.1299 39.92C52.0999 39.92 52.0799 39.91 52.0599 39.89L49.4999 36.63C49.3599 36.65 49.2299 36.65 49.1099 36.65H46.6599V39.84C46.6599 39.89 46.6399 39.92 46.5899 39.92C46.5399 39.92 46.5199 39.89 46.5199 39.84V36.57C46.5199 36.53 46.5499 36.5 46.5999 36.5H49.1099C49.1599 36.5 49.2599 36.49 49.3899 36.48L46.5299 32.85C46.5199 32.83 46.5199 32.82 46.5199 32.81C46.5199 32.76 46.5499 32.74 46.5999 32.74ZM46.7499 32.88L49.5799 36.48C50.0299 36.43 50.4099 36.31 50.7099 36.14C51.2699 35.83 51.5599 35.35 51.5599 34.69C51.5599 34.03 51.2799 33.55 50.7299 33.24C50.2899 33 49.7599 32.88 49.1299 32.88H46.7499Z" fill="white" stroke="white" stroke-width="0.2493" stroke-miterlimit="10"/>
<path d="M67.9899 32.74C68.6099 32.74 69.1699 32.82 69.6499 32.99C70.1299 33.16 70.5199 33.39 70.8199 33.67C70.8399 33.69 70.8399 33.7 70.8399 33.73C70.8399 33.78 70.8199 33.8 70.7699 33.8C70.7499 33.8 70.7299 33.79 70.7099 33.78C70.4299 33.52 70.0599 33.3 69.5899 33.14C69.1199 32.97 68.5899 32.89 67.9799 32.89C67.0599 32.89 66.3099 33.09 65.7299 33.49C65.4799 33.66 65.2899 33.85 65.1599 34.06C65.0299 34.27 64.9599 34.48 64.9599 34.69C64.9599 34.92 65.0399 35.13 65.1999 35.31C65.3399 35.48 65.5599 35.62 65.8499 35.75C66.2299 35.91 66.9099 36.08 67.9099 36.27C68.9199 36.47 69.6199 36.65 69.9999 36.81C70.3199 36.94 70.5499 37.09 70.7099 37.27C70.8999 37.47 70.9899 37.71 70.9899 37.98C70.9899 38.57 70.6599 39.05 70.0099 39.42C69.4099 39.76 68.7099 39.93 67.8999 39.93C66.6199 39.93 65.5399 39.61 64.6799 38.97C64.6599 38.95 64.6499 38.94 64.6499 38.91C64.6499 38.86 64.6799 38.83 64.7299 38.83C64.7499 38.83 64.7599 38.83 64.7699 38.84C65.5999 39.46 66.6499 39.78 67.8999 39.78C68.6799 39.78 69.3599 39.61 69.9299 39.28C70.5399 38.93 70.8399 38.5 70.8399 37.97C70.8399 37.74 70.7599 37.53 70.5899 37.36C70.4499 37.19 70.2299 37.05 69.9399 36.93C69.5699 36.77 68.8799 36.6 67.8799 36.41C66.8699 36.21 66.1799 36.03 65.7999 35.87C65.4799 35.73 65.2499 35.58 65.0899 35.4C64.8999 35.2 64.8099 34.96 64.8099 34.68C64.8099 34.44 64.8799 34.2 65.0299 33.98C65.1799 33.76 65.3799 33.54 65.6399 33.35C66.2599 32.94 67.0399 32.74 67.9899 32.74Z" fill="white" stroke="white" stroke-width="0.2493" stroke-miterlimit="10"/>
<path d="M83.5999 32.74C83.6399 32.74 83.6599 32.76 83.6799 32.78L86.6899 39.82C86.6999 39.83 86.6999 39.83 86.6999 39.84C86.6999 39.89 86.6699 39.92 86.6199 39.92C86.5899 39.92 86.5699 39.9 86.5499 39.87L83.5999 32.99L80.6599 39.87C80.6399 39.9 80.6199 39.92 80.5899 39.92C80.5399 39.92 80.5099 39.89 80.5099 39.84C80.5099 39.83 80.5099 39.82 80.5199 39.82L83.5299 32.78C83.5499 32.75 83.5699 32.74 83.5999 32.74Z" fill="white" stroke="white" stroke-width="0.2493" stroke-miterlimit="10"/>
<path d="M96.29 32.74C96.33 32.74 96.36 32.77 96.36 32.82V39.78H101.32C101.37 39.78 101.4 39.8 101.4 39.85C101.4 39.9 101.37 39.92 101.32 39.92H96.29C96.24 39.92 96.21 39.89 96.21 39.84V32.81C96.21 32.76 96.24 32.74 96.29 32.74Z" fill="white" stroke="white" stroke-width="0.2493" stroke-miterlimit="10"/>
<path d="M113.23 32.74C114.25 32.74 115.12 33.09 115.84 33.79C116.56 34.49 116.92 35.34 116.92 36.33C116.92 37.32 116.56 38.17 115.84 38.87C115.12 39.57 114.25 39.92 113.23 39.92C112.56 39.92 111.96 39.76 111.42 39.44C110.88 39.12 110.47 38.68 110.17 38.13C109.87 37.58 109.73 36.98 109.73 36.33C109.73 35.68 109.88 35.08 110.17 34.53C110.47 33.98 110.88 33.55 111.42 33.22C111.96 32.9 112.56 32.74 113.23 32.74ZM113.23 32.88C112.26 32.88 111.46 33.21 110.82 33.88C110.18 34.55 109.87 35.36 109.87 36.33C109.87 37.3 110.19 38.12 110.82 38.78C111.45 39.45 112.26 39.78 113.23 39.78C114.21 39.78 115.05 39.44 115.74 38.77C116.43 38.1 116.77 37.28 116.77 36.33C116.77 35.38 116.43 34.56 115.74 33.89C115.05 33.22 114.21 32.88 113.23 32.88Z" fill="white" stroke="white" stroke-width="0.2493" stroke-miterlimit="10"/>
<path d="M131.53 32.74C131.58 32.74 131.61 32.77 131.61 32.82V39.85C131.61 39.9 131.58 39.93 131.53 39.93C131.5 39.93 131.48 39.92 131.46 39.9L126.57 33.06V39.86C126.57 39.91 126.55 39.94 126.5 39.94C126.45 39.94 126.43 39.91 126.43 39.86V32.83C126.43 32.78 126.46 32.75 126.51 32.75C126.53 32.75 126.55 32.76 126.57 32.78L131.46 39.62V32.82C131.45 32.76 131.48 32.74 131.53 32.74Z" fill="white" stroke="white" stroke-width="0.2493" stroke-miterlimit="10"/>
<path d="M6.06994 27.91V1.83002H0.189941V1.02002H12.7899V1.83002H6.90994V27.91H6.06994Z" fill="white"/>
<path d="M16.09 14.85V27.91H15.24V1.02002H16.09V14.08H25.81V1.02002H26.65V27.9H25.81V14.85H16.09Z" fill="white"/>
<path d="M38.48 13.89V14.66H30.57V27.1H39.98V27.91H29.72V1.02002H39.97V1.83002H30.56V13.89H38.48Z" fill="white"/>
<path d="M58.09 27.91H44.61V23.65H58.13C59.1 23.65 59.94 23.3 60.63 22.61C61.32 21.92 61.67 21.09 61.67 20.11C61.67 19.14 61.32 18.31 60.63 17.61C59.94 16.92 59.11 16.57 58.13 16.57H44.61V12.35H58.13C59.1 12.35 59.94 12 60.63 11.29C61.32 10.59 61.67 9.76 61.67 8.81C61.67 7.84 61.32 7.01 60.63 6.31C59.94 5.62 59.11 5.27 58.13 5.27H44.61V1.03H58.09C60.24 1.03 62.08 1.79 63.6 3.31C65.12 4.83 65.89 6.67 65.89 8.82C65.89 11.05 65.07 12.93 63.43 14.47C65.07 16.01 65.89 17.89 65.89 20.12C65.89 22.27 65.13 24.11 63.6 25.63C62.07 27.15 60.24 27.91 58.09 27.91Z" fill="#FFD100"/>
<path d="M90.46 5.29H69.72V1.03H90.46V5.29ZM90.46 16.58H69.72V12.36H90.46V16.58ZM90.46 27.91H69.72V23.65H90.46V27.91Z" fill="#FFD100"/>
<path d="M105.67 28.52C105.06 28.52 104.43 28.48 103.79 28.4C100.69 28.09 97.53 26.69 94.3 24.18L96.99 20.84C99.93 23.07 102.83 24.18 105.67 24.18C106.46 24.18 107.19 24.08 107.86 23.87C108.76 23.59 109.45 23.15 109.93 22.56C110.34 22.05 110.54 21.55 110.54 21.06C110.54 19.78 109.97 18.84 108.83 18.24C107.69 17.64 106.33 17.13 104.74 16.72C102.54 16.21 100.55 15.44 98.77 14.42C96.99 13.4 95.9 11.67 95.49 9.24001V8.59001C95.49 5.21001 97.09 2.71001 100.29 1.10001C101.72 0.430006 103.3 0.100006 105.01 0.100006C107.93 0.100006 110.83 1.23001 113.73 3.48001L110.96 6.78001C108.94 5.19001 106.94 4.40001 104.97 4.40001C103.95 4.40001 103 4.61001 102.13 5.01001C101.52 5.27001 101 5.65001 100.59 6.16001C100.05 6.77001 99.78 7.56001 99.78 8.50001V8.77001C100.04 9.82001 100.75 10.62 101.93 11.17C103.11 11.72 104.44 12.19 105.92 12.57C107.53 13.01 109.06 13.52 110.49 14.11C113.41 15.36 114.87 17.54 114.87 20.64C114.87 22.41 114.35 23.96 113.3 25.29C112.25 26.54 110.87 27.45 109.15 28.02C108.06 28.35 106.89 28.52 105.67 28.52Z" fill="#FFD100"/>
<path d="M131.82 27.91H127.56V5.29H118.73V1.03H140.66V5.29H131.83V27.91H131.82Z" fill="#FFD100"/>
</svg>
