<svg width="298" height="128" viewBox="0 0 298 128" fill="none" xmlns="http://www.w3.org/2000/svg">
<path d="M14.14 102.11C16.02 102.11 17.7 102.36 19.16 102.88C20.62 103.39 21.8 104.08 22.68 104.94C22.72 104.99 22.75 105.04 22.75 105.11C22.75 105.25 22.68 105.31 22.55 105.31C22.48 105.31 22.42 105.29 22.38 105.24C21.54 104.45 20.41 103.8 18.99 103.3C17.57 102.8 15.95 102.55 14.14 102.55C11.37 102.55 9.1 103.15 7.33 104.35C6.58 104.87 6.01 105.45 5.61 106.09C5.21 106.73 5.01 107.36 5.01 108C5.01 108.7 5.25 109.33 5.72 109.87C6.15 110.37 6.81 110.81 7.69 111.2C8.82 111.68 10.9 112.2 13.92 112.77C16.98 113.36 19.08 113.9 20.22 114.4C21.17 114.79 21.89 115.25 22.36 115.8C22.93 116.41 23.21 117.13 23.21 117.94C23.21 119.71 22.22 121.16 20.25 122.3C18.43 123.32 16.31 123.83 13.89 123.83C10.01 123.83 6.77 122.87 4.16 120.94C4.09 120.9 4.06 120.84 4.06 120.77C4.06 120.61 4.14 120.53 4.3 120.53C4.34 120.53 4.39 120.54 4.44 120.56C6.96 122.44 10.11 123.38 13.9 123.38C16.26 123.38 18.3 122.88 20.03 121.88C21.87 120.84 22.79 119.52 22.79 117.93C22.79 117.23 22.54 116.61 22.04 116.09C21.61 115.59 20.95 115.16 20.07 114.8C18.96 114.32 16.88 113.8 13.84 113.23C10.8 112.64 8.7 112.1 7.54 111.6C6.59 111.19 5.87 110.71 5.4 110.17C4.83 109.56 4.55 108.83 4.55 107.99C4.55 107.26 4.77 106.56 5.21 105.86C5.65 105.17 6.27 104.54 7.06 103.97C8.92 102.73 11.28 102.11 14.14 102.11Z" fill="white" stroke="white" stroke-width="0.7528" stroke-miterlimit="10"/>
<path d="M76.59 102.11C76.7 102.11 76.78 102.15 76.83 102.25L85.92 123.52C85.94 123.54 85.95 123.56 85.95 123.59C85.95 123.75 85.87 123.83 85.71 123.83C85.62 123.83 85.55 123.79 85.51 123.69L76.59 102.93L67.71 123.69C67.66 123.78 67.6 123.83 67.51 123.83C67.35 123.83 67.27 123.75 67.27 123.59C67.27 123.57 67.28 123.55 67.3 123.52L76.39 102.25C76.43 102.15 76.5 102.11 76.59 102.11Z" fill="white" stroke="white" stroke-width="0.7528" stroke-miterlimit="10"/>
<path d="M130.22 102.11C130.36 102.11 130.42 102.19 130.42 102.35V123.38H145.39C145.55 123.38 145.63 123.45 145.63 123.6C145.63 123.75 145.55 123.82 145.39 123.82H130.21C130.05 123.82 129.97 123.74 129.97 123.58V102.34C129.99 102.19 130.07 102.11 130.22 102.11Z" fill="white" stroke="white" stroke-width="0.7528" stroke-miterlimit="10"/>
<path d="M196.69 102.11C199.77 102.11 202.4 103.17 204.57 105.29C206.74 107.41 207.82 109.97 207.82 112.96C207.82 115.96 206.74 118.51 204.57 120.63C202.4 122.75 199.78 123.81 196.69 123.81C194.67 123.81 192.85 123.32 191.23 122.35C189.61 121.37 188.35 120.06 187.45 118.4C186.55 116.74 186.11 114.93 186.11 112.95C186.11 110.98 186.56 109.16 187.45 107.51C188.34 105.86 189.61 104.54 191.23 103.56C192.85 102.59 194.67 102.11 196.69 102.11ZM196.69 102.55C193.76 102.55 191.34 103.55 189.42 105.56C187.5 107.57 186.54 110.03 186.54 112.96C186.54 115.89 187.5 118.35 189.42 120.36C191.34 122.37 193.76 123.37 196.69 123.37C199.66 123.37 202.19 122.36 204.26 120.32C206.34 118.29 207.37 115.83 207.37 112.95C207.37 110.07 206.33 107.61 204.26 105.58C202.19 103.55 199.66 102.55 196.69 102.55Z" fill="white" stroke="white" stroke-width="0.7528" stroke-miterlimit="10"/>
<path d="M267.27 102.11C267.43 102.11 267.51 102.19 267.51 102.35V123.59C267.51 123.75 267.43 123.83 267.27 123.83C267.18 123.83 267.11 123.8 267.06 123.73L252.29 103.07V123.59C252.29 123.75 252.22 123.83 252.07 123.83C251.92 123.83 251.85 123.75 251.85 123.59V102.35C251.85 102.19 251.93 102.11 252.09 102.11C252.16 102.11 252.21 102.14 252.26 102.21L267.03 122.87V102.35C267.04 102.19 267.11 102.11 267.27 102.11Z" fill="white" stroke="white" stroke-width="0.7528" stroke-miterlimit="10"/>
<path d="M45.63 86.75H4.92999V73.87H45.75C48.69 73.87 51.2 72.83 53.29 70.74C55.38 68.65 56.42 66.14 56.42 63.2C56.42 60.26 55.38 57.75 53.29 55.66C51.2 53.57 48.69 52.53 45.75 52.53H4.92999V39.78H45.75C48.69 39.78 51.2 38.72 53.29 36.59C55.38 34.46 56.42 31.97 56.42 29.11C56.42 26.17 55.38 23.66 53.29 21.57C51.2 19.48 48.69 18.44 45.75 18.44H4.92999V5.58002H45.63C52.12 5.58002 57.67 7.88002 62.27 12.48C66.87 17.08 69.17 22.63 69.17 29.12C69.17 35.85 66.69 41.53 61.75 46.17C66.7 50.81 69.17 56.49 69.17 63.22C69.17 69.71 66.87 75.26 62.27 79.86C57.67 84.45 52.12 86.75 45.63 86.75Z" fill="#FFD100"/>
<path d="M143.38 18.45H80.76V5.58002H143.38V18.45ZM143.38 52.54H80.76V39.78H143.38V52.54ZM143.38 86.75H80.76V73.87H143.38V86.75Z" fill="#FFD100"/>
<path d="M189.29 88.6C187.43 88.6 185.54 88.48 183.61 88.25C174.26 87.32 164.71 83.07 154.97 75.5L163.09 65.41C171.98 72.13 180.72 75.5 189.3 75.5C191.7 75.5 193.9 75.19 195.91 74.57C198.62 73.72 200.7 72.41 202.17 70.63C203.41 69.08 204.03 67.58 204.03 66.11C204.03 62.25 202.31 59.4 198.87 57.59C195.43 55.77 191.31 54.25 186.52 53.01C179.87 51.46 173.86 49.15 168.49 46.05C163.12 42.96 159.81 37.74 158.58 30.4V28.43C158.58 18.23 163.41 10.69 173.07 5.81999C177.4 3.80999 182.15 2.79999 187.33 2.79999C196.14 2.79999 204.91 6.19999 213.65 13L205.3 22.97C199.19 18.18 193.16 15.78 187.21 15.78C184.12 15.78 181.26 16.4 178.63 17.64C176.78 18.41 175.23 19.57 173.99 21.12C172.37 22.98 171.55 25.33 171.55 28.19V29C172.32 32.17 174.49 34.59 178.04 36.25C181.59 37.91 185.62 39.32 190.1 40.48C194.97 41.79 199.57 43.34 203.9 45.12C212.71 48.91 217.12 55.48 217.12 64.83C217.12 70.16 215.54 74.84 212.37 78.86C209.2 82.65 205.03 85.39 199.85 87.09C196.52 88.1 193 88.6 189.29 88.6Z" fill="#FFD100"/>
<path d="M268.26 86.75H255.39V18.45H228.72V5.58002H294.93V18.45H268.26V86.75Z" fill="#FFD100"/>
</svg>
